<svg xmlns="http://www.w3.org/2000/svg" viewBox="0 0 200 200" width="200" height="200">
  <defs>
    <radialGradient id="gbubble" cx="38%" cy="28%" r="62%">
      <stop offset="0%"   stop-color="#ffffff"/>
      <stop offset="70%"  stop-color="#fafafa"/>
      <stop offset="100%" stop-color="#f0f0f0"/>
    </radialGradient>
    <radialGradient id="gshine" cx="50%" cy="50%" r="50%">
      <stop offset="0%"   stop-color="#ffffff" stop-opacity="0.85"/>
      <stop offset="100%" stop-color="#ffffff" stop-opacity="0"/>
    </radialGradient>
  </defs>
  <g transform="translate(10, 10)">
    <path d="M 10 10 Q 10 0 22 0 L 168 0 Q 180 0 180 10 L 180 112 Q 180 124 168 124 L 94 124 L 68 162 L 66 124 L 22 124 Q 10 124 10 112 Z"
      fill="url(#gbubble)" stroke="#e8e8e8" stroke-width="1.5"/>
    <ellipse cx="95" cy="20" rx="54" ry="13" fill="url(#gshine)" opacity="0.65"/>
    <path d="M 10 104 Q 10 124 22 124 L 66 124 L 68 162 L 94 124 L 168 124 Q 180 124 180 112 L 180 104 Q 168 122 95 122 Q 22 122 10 104 Z" fill="#cccccc" opacity="0.12"/>
    <line x1="34" y1="40"  x2="146" y2="40"  stroke="#c8c6d8" stroke-width="5.5" stroke-linecap="round"/>
    <line x1="34" y1="68"  x2="146" y2="68"  stroke="#c8c6d8" stroke-width="5.5" stroke-linecap="round"/>
    <line x1="34" y1="96"  x2="110" y2="96"  stroke="#c8c6d8" stroke-width="5.5" stroke-linecap="round"/>
  </g>
</svg>
